<svg width="90" height="120" viewBox="0 0 90 120" fill="none" xmlns="http://www.w3.org/2000/svg">
<g clip-path="url(#clip0_392_824)">
<path d="M84.3767 31.0906C84.9167 32.5206 85.5767 35.4506 87.0767 37.8506C89.9867 42.5206 89.9367 46.7306 87.1567 51.4906C85.6355 54.1304 84.8354 57.1239 84.8367 60.1706C84.9367 65.7406 82.7867 69.2706 78.0067 71.9606C75.4812 73.4324 73.3877 75.5431 71.9367 78.0806C69.0067 83.3106 65.0367 85.4006 59.0967 84.9706C56.5483 84.883 54.0347 85.5812 51.8967 86.9706C47.0267 90.1806 42.6767 90.1806 37.7267 87.0606C35.2008 85.6258 32.3304 84.9099 29.4267 84.9906C24.4267 85.0506 20.5467 83.6006 18.4267 78.9906C16.8094 75.4649 13.9664 72.6468 10.4267 71.0606C8.56014 70.2788 7.00465 68.9015 6.00258 67.1433C5.00052 65.3852 4.60816 63.345 4.88666 61.3406C5.28635 57.348 4.19655 53.3485 1.82666 50.1106C0.62022 48.4818 -0.0184557 46.5021 0.00864041 44.4753C0.0357365 42.4485 0.727116 40.4866 1.97667 38.8906C4.25682 35.9161 5.29941 32.1757 4.88666 28.4506C4.32666 23.4506 6.58667 19.9406 10.9767 17.9206C14.1822 16.5056 16.7406 13.9401 18.1467 10.7306C20.4267 5.85059 24.4167 4.22058 29.7167 4.38058C32.4993 4.47936 35.2528 3.78578 37.6567 2.38058C42.5667 -0.749416 46.8867 -0.789404 51.8367 2.3306C54.3616 3.76669 57.2333 4.47943 60.1367 4.39059C65.1367 4.33059 68.9667 5.82059 71.1867 10.3906C72.7023 13.8149 75.4203 16.565 78.8267 18.1206C83.6067 20.2806 85.3367 24.3606 84.3767 31.0906ZM8.94667 58.0906C7.42667 64.0406 9.69666 66.5506 13.3567 68.9306C16.2934 70.917 18.7999 73.4745 20.7267 76.4506C22.9467 79.8206 25.4267 81.8706 29.4967 81.4506C33.367 80.9868 37.2643 82.0644 40.3467 84.4506C41.6007 85.5103 43.1928 86.0859 44.8346 86.0731C46.4764 86.0602 48.0593 85.4598 49.2967 84.3806C52.4057 82.0396 56.3064 81.0061 60.1667 81.5006C61.9108 81.7666 63.6934 81.4288 65.2193 80.5431C66.7452 79.6574 67.9227 78.277 68.5567 76.6306C70.2253 72.968 73.1781 70.0437 76.8567 68.4106C80.0267 66.9106 81.6467 64.4106 81.2667 60.9206C80.8106 56.5402 82.0209 52.1488 84.6567 48.6206C85.5308 47.4549 85.9932 46.032 85.9715 44.5751C85.9498 43.1182 85.4451 41.7097 84.5367 40.5706C81.9635 37.1487 80.7842 32.8781 81.2367 28.6206C81.492 27.0601 81.2043 25.4592 80.4218 24.0852C79.6392 22.7112 78.4091 21.6471 76.9367 21.0706C73.057 19.2798 69.9587 16.1424 68.2167 12.2406C67.5942 10.7223 66.4581 9.47092 65.0068 8.70508C63.5556 7.93923 61.8814 7.70759 60.2767 8.0506C58.4346 8.34894 56.5505 8.25838 54.7456 7.78476C52.9407 7.31114 51.2549 6.46494 49.7967 5.3006C46.3067 2.7306 42.9667 2.86058 39.5367 5.41058C38.0608 6.55344 36.3637 7.37732 34.5528 7.83005C32.7419 8.28277 30.8567 8.35447 29.0167 8.04059C27.4698 7.69844 25.8517 7.92059 24.4543 8.66696C23.0569 9.41333 21.9724 10.6347 21.3967 12.1106C19.6048 16.1291 16.4031 19.3521 12.3967 21.1706C9.34667 22.6606 7.91667 25.0606 8.39667 28.4306C8.67287 30.4749 8.54299 32.5535 8.01447 34.5475C7.48595 36.5415 6.56917 38.4115 5.31667 40.0506C3.07667 43.1606 3.39667 46.1406 5.31667 49.4506C6.71428 52.2618 7.92686 55.1613 8.94667 58.1306V58.0906Z" fill="black"/>
<path d="M63.5867 119.321C62.1067 119.321 59.9267 117.661 59.2167 116.161C56.4667 110.431 54.1067 104.511 51.8267 98.5808C51.4667 97.6608 52.2567 96.3008 52.5267 95.1408L53.8667 95.2608L62.7867 116.061L63.9167 116.211C65.3567 113.031 67.0567 109.941 68.1767 106.651C69.2967 103.361 71.1767 102.531 74.3967 103.651C76.9567 104.531 79.6867 104.931 82.3267 105.651C85.1867 106.381 86.0967 105.581 85.0067 102.651C82.9167 97.0408 80.8267 91.4208 79.0067 85.7208C78.5067 84.1608 79.0067 82.2808 79.1067 80.5508H80.6567C83.3567 87.9108 86.1567 95.2508 88.7167 102.661C90.1967 106.961 86.8767 110.341 82.3867 109.341C79.9575 108.899 77.5668 108.267 75.2367 107.451C72.4967 106.351 71.4467 107.451 70.6467 109.871C70.0663 112.04 69.1844 114.117 68.0267 116.041C67.0267 117.511 65.1267 119.271 63.6067 119.291" fill="black"/>
<path d="M26.3104 119.32C24.8404 119.37 23.3104 117.39 21.8004 116.32C21.6204 116.19 21.5805 115.88 21.4705 115.66C20.0405 112.8 19.2604 108.53 16.9904 107.47C14.7204 106.41 10.9905 108.77 7.81045 109.11C5.93045 109.31 3.19045 109.16 2.20045 107.99C1.61696 107.118 1.22597 106.132 1.05354 105.098C0.881103 104.063 0.931187 103.004 1.20045 101.99C3.48045 94.7698 6.26044 87.7098 8.86044 80.5898H10.4604C10.4604 82.3298 11.0004 84.2098 10.4604 85.7798C8.65044 91.4798 6.57044 97.0898 4.46044 102.69C3.35044 105.69 4.37044 106.37 7.17044 105.69C9.97044 105.01 12.9505 104.32 15.8105 103.53C18.3505 102.81 19.9905 103.31 20.9705 106.07C22.2105 109.53 23.8404 112.84 25.3004 116.22L26.6004 116.38C29.5938 109.44 32.5938 102.503 35.6004 95.5698C37.9804 95.7098 38.7804 96.4798 37.7604 98.8598C35.2904 104.57 33.2104 110.46 30.5804 116.1C29.8604 117.63 27.7804 119.37 26.2604 119.42" fill="black"/>
<path d="M44.5612 65.0196C40.5533 64.9485 36.656 63.6936 33.3596 61.4128C30.0632 59.1319 27.5151 55.9271 26.0358 52.2015C24.5565 48.4758 24.2122 44.3959 25.0462 40.4751C25.8802 36.5542 27.8553 32.9677 30.7229 30.1667C33.5904 27.3657 37.2224 25.4754 41.1617 24.7337C45.101 23.992 49.1717 24.432 52.8616 25.9983C56.5514 27.5646 59.6956 30.1873 61.8984 33.5364C64.1012 36.8854 65.2643 40.8111 65.2412 44.8196C65.2205 47.507 64.6678 50.1636 63.6153 52.6364C62.5627 55.1091 61.031 57.349 59.1085 59.2269C57.186 61.1047 54.9108 62.5834 52.414 63.5776C49.9173 64.5719 47.2484 65.0619 44.5612 65.0196ZM44.7912 61.5096C48.1158 61.4898 51.3599 60.4846 54.1133 58.621C56.8666 56.7575 59.0054 54.1193 60.2594 51.0402C61.5134 47.9611 61.8262 44.5792 61.1581 41.3224C60.4901 38.0655 58.8713 35.0798 56.5065 32.743C54.1417 30.4061 51.1369 28.8229 47.8723 28.1937C44.6078 27.5645 41.2299 27.9175 38.1659 29.208C35.1019 30.4985 32.4894 32.6686 30.6588 35.4439C28.8281 38.2192 27.8615 41.475 27.8813 44.7996C27.8838 47.0102 28.3243 49.1983 29.1775 51.2376C30.0307 53.2769 31.2796 55.1269 32.8519 56.6806C34.4243 58.2344 36.289 59.4612 38.3383 60.29C40.3876 61.1189 42.5808 61.5334 44.7912 61.5096Z" fill="black"/>
</g>
<defs>
<clipPath id="clip0_392_824">
<rect width="89.25" height="119.32" fill="white"/>
</clipPath>
</defs>
</svg>
